<svg width="978" height="784" viewBox="0 0 978 784" fill="none" xmlns="http://www.w3.org/2000/svg">
<path d="M376.742 1.13985C377.753 0.918948 378.807 0.961248 379.801 1.26585L381.455 1.77275L381.777 1.88115C383.366 2.46805 384.642 3.70045 385.281 5.28055L385.307 5.34495C386.212 6.05545 386.897 7.00935 387.278 8.09595L387.857 9.74925C388.173 10.651 388.271 11.616 388.141 12.5627L387.586 16.6184L387.749 16.675L388.048 16.7863C388.344 16.9062 388.631 17.0497 388.904 17.215L391.101 18.5432C392.478 19.3754 393.466 20.7237 393.846 22.2873C394.14 23.5008 394.045 24.7668 393.596 25.9133L394.712 27.5432C395.25 28.3299 395.594 29.2344 395.716 30.1799L395.958 32.051C396.115 33.2683 395.897 34.5056 395.333 35.5959L393.51 39.1223C393.092 39.9296 392.497 40.6325 391.769 41.1779L391.404 41.4515L391.442 42.7854C391.474 43.9503 391.168 45.101 390.561 46.0959L389.155 48.3978L388.469 50.5109L388.195 52.7717L388.149 54.1399L388.594 54.9876L388.727 55.2601C388.854 55.5346 388.96 55.8189 389.044 56.1096L389.498 57.6771C391.172 58.5015 392.401 60.0703 392.762 61.9563L392.918 62.7766C393.023 63.3266 393.052 63.8898 393.002 64.4476L392.785 66.8723C393.367 67.3927 393.852 68.0268 394.201 68.7502C394.275 68.9037 394.34 69.0613 394.4 69.2189C394.982 69.596 395.5 70.0697 395.924 70.6272L397.467 72.6564L399.216 74.4592L402.64 75.301L402.872 75.3625C403.342 75.498 403.785 75.6895 404.198 75.926L404.448 76.0324C404.496 76.0527 404.543 76.0764 404.59 76.0979C404.675 75.917 404.77 75.7387 404.874 75.5656C405.748 74.1117 407.194 73.0926 408.857 72.758L408.993 72.7297L409.346 72.3234L409.505 72.1467C411.176 70.3618 413.77 69.7567 416.068 70.6359L416.491 70.7971C416.769 70.5966 417.066 70.4179 417.379 70.2658L421.399 68.3098L421.622 68.2072C422.641 67.7617 423.764 67.607 424.865 67.759C425.281 66.8625 425.913 66.0771 426.71 65.4768L428.472 64.1477L428.793 63.9232C429.557 63.4215 430.427 63.0982 431.338 62.9816L432.377 62.8489L432.658 62.8195C432.917 62.7987 433.177 62.7954 433.433 62.8078L433.625 62.7063L433.881 62.5765C435.174 61.9612 436.649 61.8249 438.038 62.1976L438.533 62.3303C439.746 62.6558 440.809 63.3474 441.595 64.2854C441.726 64.2449 441.86 64.2085 441.995 64.1771L444.012 63.7072L444.438 63.6232C445.191 63.5039 445.959 63.5316 446.701 63.6976C447.446 63.4853 448.227 63.4169 449 63.5002C449.022 63.0303 449.098 62.5564 449.234 62.0881L449.826 60.0588C450.081 59.1846 450.532 58.3792 451.142 57.7034L451.721 57.0627C452.153 55.4886 453.204 54.1532 454.639 53.3665L455.013 53.1614L455.27 53.0275C456.574 52.3921 458.069 52.2466 459.476 52.6232L460.333 52.8518L460.682 52.9572C461.484 53.2248 462.224 53.6586 462.85 54.2316L463.178 54.5335L463.384 54.6301L475.453 52.2102L475.839 52.1447C477.567 51.9133 479.306 52.4456 480.612 53.59C481.223 53.583 481.838 53.6682 482.434 53.8489L483.63 54.2102C485.166 54.6757 486.407 55.7148 487.151 57.0482C488.263 57.5441 489.197 58.3637 489.833 59.3977L490.503 59.6301L491.59 59.8772C492.017 59.2526 492.558 58.7097 493.189 58.2825L495.277 56.8703C495.709 56.5786 496.177 56.3438 496.669 56.1721L497.671 55.8226L497.907 55.7444C499.96 55.1203 502.165 55.64 503.72 57.0521C504.878 56.2024 506.337 55.7664 507.854 55.9085L508.241 55.9445L508.48 55.972C509.672 56.1319 510.792 56.6447 511.692 57.4466L512.732 58.3723C512.965 58.3984 513.196 58.4379 513.423 58.4905L513.653 58.2845L513.856 58.1096C514.064 57.9392 514.284 57.7822 514.513 57.6409L515.708 56.9006L516.136 56.3381C516.194 55.6009 516.387 54.8723 516.715 54.1926L519.976 47.4152L520.039 46.4035L520.059 46.1584C520.183 44.9391 520.675 43.7829 521.474 42.8479L522.813 41.2785C523.221 40.8016 523.698 40.3932 524.225 40.0667L526.927 35.7209L526.99 35.4074L527.059 35.1018C527.239 34.3959 527.545 33.7263 527.964 33.1282L528.978 31.6809L529.201 31.382C529.432 31.0914 529.69 30.8219 529.972 30.5783L530.981 29.7033L531.202 29.1242C531.716 27.7696 532.701 26.6441 533.975 25.9553L534.88 25.466L534.826 24.4582C534.766 23.3392 535.018 22.2242 535.555 21.2404L535.771 20.842L535.933 20.5627C536.781 19.1902 538.146 18.2088 539.727 17.8479C541.414 17.4631 543.185 17.8213 544.591 18.8303L548.66 21.7512L548.891 21.927C549.119 22.1072 549.333 22.3037 549.532 22.5148L550.909 23.9758L551.139 24.2356C551.213 24.3236 551.285 24.4138 551.353 24.5061L552.452 25.9787C552.728 26.3481 552.961 26.7488 553.145 27.1711L553.48 27.9387C554.092 28.4395 554.613 29.0658 554.999 29.8L555.252 30.2834L555.404 30.5939C555.737 31.3272 555.921 32.1216 555.942 32.9289L556.183 42.0236L556.78 45.5188L559.738 52.1223C559.847 52.3643 559.94 52.6143 560.016 52.8685L561.655 58.3811C562.346 58.3895 563.033 58.5171 563.686 58.7601L564.725 59.1467L565.153 59.3245C566.497 59.9454 567.541 61.031 568.128 62.344C568.65 62.9197 569.06 63.5912 569.328 64.3245L570.147 66.5666L571.905 67.1623L572.268 67.2981C572.626 67.4452 572.97 67.6268 573.294 67.84L574.85 68.8664C576.048 69.6554 576.926 70.846 577.326 72.2229L578.256 75.4211C578.442 76.0615 578.52 76.7295 578.488 77.3957L578.295 81.4162C578.272 81.897 578.189 82.3684 578.057 82.8215C578.134 83.5054 578.097 84.1993 577.94 84.8723L577.734 85.7541C577.672 86.0231 577.589 86.2866 577.491 86.5422C577.492 86.935 577.456 87.3299 577.38 87.7199L577.26 88.3349C577.057 89.3709 576.586 90.3279 575.903 91.1179C575.771 91.5509 575.59 91.9699 575.363 92.3659C575.52 92.7529 575.64 93.1549 575.715 93.5679C576.273 93.5939 576.827 93.6969 577.36 93.8769L578.29 94.1929L578.616 94.3129C579.368 94.6159 580.052 95.0679 580.627 95.6429L581.447 96.4639C582.274 97.2909 582.828 98.3279 583.072 99.4399L583.36 99.5479L583.613 99.6509C584.87 100.189 585.91 101.14 586.558 102.35L586.624 102.476L589.638 102.779L589.915 102.813C590.191 102.853 590.465 102.912 590.732 102.991L593.663 103.849L601.023 104.816L601.405 104.878C602.288 105.052 603.123 105.422 603.848 105.962L604.608 106.531C606.204 107.722 607.111 109.623 607.03 111.613L606.975 112.962C607.496 112.93 608.015 112.967 608.52 113.067L608.721 112.925L609.016 112.727C609.715 112.288 610.498 111.996 611.317 111.871L611.873 111.787L612.253 111.742C613.046 111.672 613.834 111.762 614.577 111.993L614.72 111.951L614.916 111.897C615.176 111.733 615.45 111.588 615.736 111.464L616.268 111.235L616.635 111.09C617.501 110.782 618.429 110.675 619.346 110.78L622.097 111.093C622.878 111.182 623.637 111.424 624.326 111.804L625.751 112.588L626.09 112.789C626.23 112.879 626.366 112.977 626.498 113.078C627.421 112.916 628.374 112.97 629.278 113.241C630.626 113.065 632.004 113.35 633.183 114.063L633.641 114.341C634.134 114.639 634.571 115.002 634.949 115.411C635.727 115.567 636.466 115.875 637.123 116.316C638.07 116.373 639.011 116.654 639.864 117.165L640.166 117.347L640.456 117.533C640.612 117.639 640.761 117.752 640.905 117.871C642.697 117.534 644.567 118.024 645.971 119.239C646.259 119.488 646.518 119.762 646.75 120.054C647.756 120.172 648.741 120.544 649.604 121.175L650.063 121.512C651.402 120.886 652.93 120.768 654.355 121.196L654.718 121.305L655.138 121.448C656.586 122.001 657.743 123.085 658.406 124.447C659.28 124.461 660.119 124.663 660.879 125.021C661.924 124.072 663.281 123.508 664.72 123.456L665.733 123.42H666.18C667.218 123.46 668.232 123.768 669.121 124.317L669.941 124.825C671.207 125.607 672.14 126.829 672.56 128.256L672.682 128.666C672.779 128.997 672.844 129.334 672.884 129.672C674.009 130.18 674.966 131.026 675.606 132.114L676.21 133.141C676.65 133.889 676.919 134.715 677.009 135.563C677.878 136.288 678.538 137.252 678.891 138.353L679.821 141.25C679.983 141.754 680.076 142.276 680.101 142.801C680.706 143.402 681.175 144.122 681.479 144.914C682.197 144.84 682.925 144.894 683.626 145.076L684.181 145.221C685.364 145.53 686.391 146.179 687.165 147.048C687.531 146.946 687.905 146.879 688.282 146.847C688.952 145.954 689.875 145.24 690.982 144.823L691.719 144.544L692 144.447C692.66 144.234 693.353 144.138 694.048 144.16L696.969 144.257L697.236 144.271C697.503 144.291 697.768 144.331 698.03 144.387L700.18 144.845L700.428 144.905C700.675 144.968 700.919 145.047 701.156 145.142L703.557 146.1L703.983 146.146C704.918 146.245 705.819 146.561 706.61 147.069L707.775 147.816C709.36 147.853 710.866 148.512 711.97 149.65L713.087 150.801L713.937 151.397L714.657 151.564L714.881 151.528C716.178 151.315 717.48 151.538 718.608 152.116C719.043 151.895 719.509 151.723 719.999 151.612L722.015 151.153L722.321 151.09C723.041 150.965 723.779 150.973 724.498 151.112L725.184 151.243C726.264 151.452 727.255 151.949 728.061 152.668L729.747 153.667L730.067 153.87C730.177 153.945 730.283 154.024 730.388 154.106C731.001 154.055 731.621 154.093 732.226 154.231L732.952 154.396C733.723 154.01 734.576 153.787 735.458 153.758L743.247 153.504L745.908 153.109L747.946 152.459C748.744 152.205 749.588 152.118 750.421 152.207L759.354 153.161L759.639 153.199C760.3 153.301 760.94 153.513 761.533 153.826L764.093 155.179L764.319 155.305C764.543 155.436 764.76 155.581 764.966 155.74L766.896 157.234L771.022 159.417L772.376 159.9C772.783 160.045 773.174 160.233 773.541 160.461L778.34 163.448L778.615 163.493L778.853 163.538C780.037 163.783 781.121 164.378 781.965 165.248L784.253 167.608L786.55 169.229L788.651 169.818C789.822 170.146 790.867 170.821 791.648 171.752L793.79 174.305L794.141 174.481C794.948 174.884 795.655 175.464 796.209 176.177L799.273 180.12L803.629 183.346C804.119 183.709 804.553 184.146 804.913 184.639L806.356 186.616L806.557 186.807C807.201 186.839 807.837 186.973 808.439 187.206L811.301 188.317L811.533 188.413C812.071 188.648 812.572 188.961 813.02 189.341L813.975 190.15L814.264 190.411C814.787 190.917 815.21 191.515 815.521 192.171L816.039 192.169L816.286 192.174C816.862 192.196 817.433 192.301 817.98 192.485L819.454 192.98L819.794 193.105C820.576 193.421 821.286 193.898 821.874 194.507L822.559 195.22L824.607 195.023C825.158 194.97 825.714 194.993 826.258 195.091L828.918 195.573L830.527 195.42L832.736 194.728C833.711 194.422 834.749 194.369 835.75 194.574L840.679 195.581L841.698 195.614L841.986 195.63C842.661 195.684 843.322 195.851 843.942 196.124L846.297 197.161C846.779 197.374 847.232 197.65 847.643 197.981L848.875 198.97L849.213 199.262C849.539 199.567 849.83 199.908 850.082 200.278L850.854 201.412L851.087 201.781C851.16 201.906 851.228 202.035 851.292 202.165L854.08 207.888L854.194 208.136C854.303 208.387 854.394 208.645 854.468 208.909L855.072 211.07C855.242 211.677 855.313 212.306 855.288 212.936L856.816 218.492L856.917 218.915C856.933 218.998 856.943 219.082 856.956 219.165C857.313 219.644 857.601 220.176 857.804 220.744L858.963 223.992C859.102 224.382 859.2 224.785 859.257 225.195L859.511 227.031C859.538 227.227 859.555 227.424 859.562 227.618L859.563 227.624V227.63L859.639 229.672L860.753 233.046C861.601 234.085 862.108 235.407 862.115 236.832L862.118 237.619C862.639 238.59 862.889 239.684 862.832 240.786L862.505 247.039C862.495 247.226 862.473 247.412 862.446 247.596C862.856 249.073 862.69 250.653 861.978 252.011C862.023 252.178 862.062 252.347 862.093 252.518L862.321 253.797C862.491 254.743 862.432 255.717 862.15 256.635L859.784 264.337C859.754 264.434 859.722 264.531 859.687 264.625L855.764 275.43C855.76 275.44 855.755 275.45 855.751 275.46C855.724 275.534 855.695 275.607 855.665 275.68L855.644 275.73C855.637 275.747 855.629 275.764 855.622 275.781C855.581 275.874 855.539 275.968 855.493 276.061L855.479 276.086L855.466 276.114C855.431 276.182 855.394 276.252 855.356 276.32L851.999 282.308C851.788 282.685 851.537 283.038 851.251 283.362L845.757 289.555C845.677 289.645 845.595 289.734 845.51 289.82L841.615 293.711L838.278 298.74C837.975 299.196 837.611 299.61 837.197 299.968L834.102 302.643L833.436 303.996C833.278 304.317 833.092 304.624 832.88 304.911L831.328 307.014C831.238 307.139 831.144 307.26 831.045 307.377C831.043 307.379 831.042 307.382 831.04 307.384C830.705 307.781 830.319 308.133 829.893 308.431L829.886 308.438L829.859 308.455C829.374 308.791 828.839 309.058 828.266 309.242L826.148 309.915L821.74 312.752L821.433 313.034L819.938 315.165C819.477 315.823 818.897 316.369 818.24 316.787L817.463 318.07C817.389 318.191 817.308 318.309 817.226 318.424C817.049 319.295 816.682 320.117 816.148 320.831L815.495 321.702L814.641 323.571C814.21 324.509 813.553 325.306 812.746 325.904C812.708 325.997 812.671 326.091 812.629 326.183L807.704 336.843C807.533 337.214 807.323 337.566 807.081 337.895L802.851 343.625L801.877 345.83C801.63 346.389 801.299 346.908 800.896 347.367L794.823 354.297C794.323 354.868 793.72 355.341 793.045 355.688L790.087 357.208C789.212 357.658 788.24 357.887 787.257 357.875L786.419 357.867L785.447 358.64C785.424 358.658 785.398 358.674 785.375 358.692L785.475 359.706C785.575 360.735 785.409 361.774 784.993 362.72L784.16 364.615C784.153 364.63 784.144 364.645 784.137 364.66C784.144 365.112 784.101 365.565 784.007 366.008C784.033 366.062 784.063 366.115 784.088 366.169L784.39 366.822C784.786 367.679 784.976 368.618 784.944 369.563L784.872 371.689C784.85 372.33 784.725 372.965 784.504 373.567L783.571 376.099L782.767 382.004C782.73 382.281 782.672 382.556 782.597 382.825L782.274 383.967L782.383 385.305L783.177 388.203L783.257 388.534C783.328 388.866 783.371 389.204 783.386 389.543L783.603 394.742L784.555 401.76L785.628 405.465C785.967 406.638 785.943 407.888 785.558 409.046L783.003 416.74L781.447 424.413C781.353 424.878 781.204 425.331 781.004 425.76L780.926 425.926L780.798 428.222C780.773 428.667 780.698 429.109 780.576 429.538L779.495 433.333L779.429 435.039L779.76 438.799L780.282 439.803C781.355 441.864 781.149 444.359 779.753 446.216L777.049 449.815C776.353 450.74 775.405 451.446 774.319 451.848L773.1 452.298L771.156 455.079L770.754 456.522L770.748 456.542L769.757 460.112L769.481 462.65L769.603 466.309L770.444 473.482C770.501 473.965 770.499 474.453 770.438 474.936L770.064 477.917C769.986 478.544 769.809 479.155 769.541 479.727L767.742 483.566C767.169 484.788 766.202 485.784 764.998 486.393L763.055 487.374L761.959 489.558L760.938 493.523C760.823 493.971 760.654 494.406 760.439 494.817L759.511 496.59C759.308 496.976 759.065 497.335 758.79 497.663L756.525 502.615C756.271 503.17 755.934 503.684 755.526 504.138L751.361 508.774C750.705 509.504 749.887 510.053 748.987 510.39L748.513 511.805C748.292 512.46 747.961 513.072 747.533 513.616L746.542 514.874L746.496 515.61C746.437 516.549 746.159 517.461 745.684 518.274L745.207 519.091L745.159 519.548L746.4 526.93C746.671 528.54 746.277 530.191 745.31 531.506L744.707 532.328C744.205 533.011 743.563 533.581 742.826 534L739.107 536.113C738.753 536.314 738.379 536.48 737.991 536.606L731.453 538.729L729.326 540.022L727.439 542.011C727.561 542.626 727.587 543.258 727.514 543.882L727.283 545.838C727.203 546.522 727.006 547.187 726.702 547.804L725.82 549.592C725.062 551.129 723.686 552.271 722.036 552.734L719.839 553.349C719.258 553.511 718.656 553.586 718.054 553.571L710.59 553.376L704.037 554.169C703.416 554.244 702.786 554.222 702.172 554.104L700.883 553.855C700.762 553.901 700.639 553.947 700.516 553.986L698.548 554.601C697.928 554.795 697.279 554.889 696.63 554.876L695.189 554.848L686.44 556.012L686.108 556.115C685.264 557.011 684.156 557.643 682.917 557.895L679.947 558.498C679.862 558.516 679.776 558.529 679.69 558.542C679.11 558.804 678.485 558.975 677.836 559.042L676.648 560.159C675.26 561.462 673.336 562.033 671.462 561.7C671.338 561.74 671.213 561.776 671.087 561.808L669.047 562.315C668.78 562.381 668.509 562.427 668.239 562.456C668.232 562.462 668.225 562.47 668.219 562.476L667.302 563.247C666.992 563.508 666.656 563.735 666.302 563.928C666.307 563.996 666.314 564.064 666.317 564.132L666.474 567.645C666.566 569.714 665.591 571.687 663.891 572.869L663.336 573.256C661.636 574.439 659.448 574.667 657.541 573.862L657.247 573.737C655.707 573.895 654.16 573.457 652.931 572.503L652.338 572.045C651.76 571.597 651.28 571.053 650.907 570.45L648.897 570.128L648.253 570.294L648.064 570.383L647.294 571.756C646.649 572.902 645.647 573.807 644.441 574.331L642.859 575.018C641.697 575.524 640.406 575.649 639.169 575.38L632.384 579.158C632.049 579.991 631.533 580.745 630.866 581.357L626.919 584.978C626.62 585.252 626.293 585.496 625.944 585.705L622.02 588.06C621.552 588.341 621.047 588.557 620.52 588.702L619.233 589.057L616.054 591.325V591.685C616.054 592.578 615.854 593.46 615.473 594.267L614.725 595.849C614.242 596.868 613.484 597.732 612.537 598.342L611.911 598.743L611.303 599.594C611.285 599.618 611.265 599.64 611.247 599.664C611.192 599.739 611.135 599.812 611.077 599.884C611.04 599.93 611.002 599.974 610.964 600.019C610.905 600.087 610.844 600.153 610.782 600.219C610.748 600.255 610.715 600.291 610.681 600.325C610.598 600.409 610.513 600.491 610.425 600.57C610.406 600.586 610.389 600.604 610.37 600.62C610.262 600.715 610.15 600.807 610.034 600.895L609.718 601.133L609.609 601.398C608.973 602.94 607.757 604.095 606.301 604.688C605.878 605.39 605.307 606.017 604.597 606.515L604.564 606.536L603.381 608.674C603.329 608.767 603.273 608.858 603.217 608.949C603.23 609.478 603.17 610.007 603.046 610.523C603.088 610.585 603.134 610.646 603.174 610.71L603.957 611.978C605.188 613.967 605.16 616.489 603.883 618.45L603.24 619.435L602.613 621.224C602.322 622.052 601.858 622.789 601.269 623.402L601.253 623.44C601.732 624.271 602.011 625.213 602.055 626.188L602.193 629.329C602.767 629.845 603.246 630.47 603.591 631.18L604.013 632.049L604.119 632.282C604.356 632.828 604.513 633.407 604.581 633.999L604.701 635.05C604.723 635.244 604.734 635.436 604.738 635.627C604.867 635.777 604.991 635.934 605.105 636.097L605.902 637.232C606.864 638.601 607.213 640.309 606.868 641.947L606.217 645.036C606.006 646.033 605.544 646.957 604.882 647.727C604.878 649.558 604.042 651.303 602.59 652.45L602.102 653.775L601.564 657.944C601.507 658.385 601.4 658.82 601.247 659.239L599.183 664.889C599.017 665.343 598.801 665.765 598.545 666.152C598.497 666.249 598.448 666.347 598.395 666.443L597.284 668.448C596.607 669.669 595.527 670.619 594.228 671.133L592.972 671.63L588.881 674.643L586.018 677.257L582.124 681.868L581.157 683.618C581.137 683.654 581.114 683.688 581.094 683.724C581.082 683.744 581.07 683.765 581.058 683.785L581.047 683.803C580.989 683.899 580.929 683.992 580.867 684.083L580.856 684.101C580.841 684.124 580.825 684.147 580.808 684.17C580.742 684.265 580.671 684.356 580.6 684.447C580.588 684.461 580.579 684.478 580.567 684.492L579.206 686.174L574.988 693.79L570.068 707.347C569.936 707.712 569.768 708.065 569.567 708.398L561.962 721.05C561.813 721.298 561.646 721.534 561.463 721.758L554.896 729.799C554.713 730.024 554.512 730.236 554.298 730.432L546.437 737.627C546.144 737.896 545.824 738.136 545.483 738.342L539.187 742.145L536.167 746.346C535.398 747.414 534.317 748.179 533.104 748.567L533.055 748.606L531.145 752.327L528.978 760.05C528.898 760.336 528.798 760.615 528.677 760.886L526.249 766.307C526.112 766.614 525.948 766.909 525.762 767.189L523.734 770.23C523.495 770.589 523.216 770.922 522.906 771.222L513.502 780.313C513.305 780.503 513.096 780.68 512.875 780.842L510.255 782.761C509.266 783.485 508.08 783.892 506.855 783.926L506.421 783.938C505.313 783.969 504.218 783.693 503.256 783.143L500.913 781.804C499.784 781.158 498.894 780.164 498.375 778.971L498.135 778.415C497.706 777.429 497.547 776.347 497.677 775.28L498.221 770.814L497.74 766.372C497.687 765.878 497.695 765.378 497.764 764.885L497.945 763.594L497.984 763.346C498.089 762.773 498.277 762.217 498.541 761.697L499.302 760.2C499.67 759.474 500.183 758.83 500.807 758.307L502.783 756.651C502.475 756.447 502.185 756.214 501.918 755.955L499.116 753.239C498.887 753.016 498.675 752.775 498.483 752.519L497.022 750.563C496.321 749.623 495.907 748.499 495.834 747.328L495.768 746.279L495.75 746.232L494.882 744.796L493.023 742.776L492.522 742.522C490.923 742.714 489.311 742.262 488.047 741.257L485.753 739.435C485.519 739.249 485.298 739.044 485.094 738.825L483.802 737.44L482.968 736.92C481.48 735.991 480.478 734.465 480.205 732.747L478.865 732.563C478.197 732.47 477.548 732.266 476.947 731.959L475.837 731.392C475.312 731.124 474.828 730.78 474.403 730.372L474.226 730.202C473.132 730.176 472.06 729.854 471.13 729.263L468.511 727.597C467.608 727.023 466.873 726.217 466.383 725.266L464.976 722.535L464.217 723.194C463.19 724.081 461.895 724.598 460.54 724.659L457.316 724.804C455.634 724.879 453.996 724.248 452.799 723.063C451.602 721.878 450.954 720.246 451.013 718.563L451.134 715.109L451.154 714.803L448.618 711.821L446.298 710.088C446.112 709.949 445.933 709.799 445.765 709.639L443.133 707.153C442.956 706.985 442.788 706.806 442.633 706.618L440.889 704.515L440.377 704.095C440.178 704.355 439.959 704.601 439.718 704.828L438.475 706C437.383 707.029 435.946 707.615 434.446 707.642L433.105 707.665C432.237 707.681 431.383 707.507 430.598 707.167L428.749 707.25C427.368 707.311 426.008 706.895 424.896 706.075L424.111 705.496C423.217 704.836 422.531 703.945 422.115 702.932C421.228 701.767 420.768 700.294 420.897 698.767C421.11 696.251 422.866 694.138 425.29 693.462L426.339 692.309L426.344 692.215C426.39 691.434 426.589 690.669 426.928 689.963L427.651 688.454C428.197 687.319 429.085 686.381 430.189 685.775L431.179 685.232L431.48 685.076C432.061 684.799 432.683 684.618 433.321 684.536L438.933 677.863L439.018 677.669L439.102 677.126L439.172 676.753C439.361 675.889 439.738 675.074 440.278 674.369L441.268 673.077L441.558 672.727C441.859 672.389 442.2 672.085 442.57 671.823L444.018 670.797L444.223 670.659C444.401 670.543 444.586 670.435 444.775 670.339L445.708 668.33C445.894 667.296 446.346 666.326 447.021 665.52L447.396 665.073L447.591 664.852C448.058 664.347 448.609 663.924 449.22 663.604L450.249 663.063L451.292 661.913L451.673 661.397L451.999 660.573L452.111 660.308C452.23 660.045 452.369 659.79 452.524 659.546L454.141 657.01C454.602 656.288 455.209 655.677 455.915 655.213C456.236 654.392 456.736 653.639 457.395 653.017L457.817 652.618L458.054 652.408C458.552 651.985 459.116 651.647 459.723 651.405C460.418 650.614 461.309 650.018 462.307 649.678L463.558 649.251C463.807 648.727 464.131 648.238 464.524 647.802L465.515 646.703L465.7 646.507C466.142 646.058 466.653 645.68 467.213 645.389L469.881 644.001L470.098 643.894C470.606 643.655 471.147 643.488 471.702 643.398L472.311 643.299C472.419 643.012 472.548 642.731 472.698 642.462L474.292 639.613C475.233 637.931 476.921 636.799 478.834 636.567L479.232 636.519L479.537 636.49C480.15 636.446 480.752 636.496 481.325 636.629L482.385 636.14L482.685 636.011C482.989 635.89 483.302 635.793 483.622 635.723L486.007 635.198L487.651 633.358L487.877 633.118C488.448 632.546 489.124 632.1 489.859 631.798L489.951 631.675L490.096 631.49C490.839 630.573 491.837 629.892 492.966 629.535L493.973 629.217L494.1 628.961L494.336 628.287L493.912 625.922C493.805 625.32 493.79 624.703 493.867 624.096L494.308 620.644L494.267 618.002C494.253 617.11 494.437 616.226 494.804 615.416L493.001 612.436C492.422 611.48 492.12 610.382 492.129 609.265L492.143 607.214C491.844 607.244 491.541 607.253 491.236 607.238L490.384 607.194L490.255 607.303C488.117 609.1 485.026 609.197 482.78 607.536L482.601 607.402C480.039 606.966 477.972 604.901 477.63 602.213L477.292 599.558C477.158 598.505 477.304 597.435 477.715 596.456L478.512 594.561C478.748 594 479.068 593.478 479.46 593.012L480.318 591.993C480.297 591.771 480.282 591.547 480.286 591.323L480.31 589.825C480.318 589.369 480.377 588.916 480.486 588.474L481.572 584.078L481.701 583.635C481.749 583.49 481.802 583.345 481.861 583.203L482.785 580.99L482.651 579.758C482.52 578.546 482.758 577.321 483.336 576.246L483.347 576.226C483.197 575.86 483.08 575.479 483.004 575.087L482.629 573.155C482.555 572.773 482.518 572.388 482.518 572.004L481.994 572.263L481.945 572.32C481.201 573.14 480.244 573.74 479.182 574.054L477.177 574.646C476.942 574.715 476.702 574.771 476.46 574.811L473.346 575.329C472.634 575.448 471.906 575.438 471.198 575.3L468.35 574.744C467.599 574.598 466.881 574.31 466.237 573.896L465.018 573.112C463.489 572.127 462.485 570.504 462.286 568.696L461.885 565.063L461.862 565.039C460.933 564.058 460.36 562.794 460.234 561.449L459.957 558.467C459.911 557.971 459.929 557.471 460.005 556.982C459.964 556.838 459.927 556.692 459.897 556.545L459.787 556.014C459.706 555.616 459.666 555.21 459.666 554.804V552.639L459.126 551.447C458.953 551.064 458.821 550.663 458.731 550.252L458.006 546.945C457.943 546.657 457.901 546.365 457.881 546.072L457.821 545.202C457.784 544.662 457.821 544.121 457.927 543.593C457.657 543.247 457.421 542.872 457.231 542.472L456.772 541.506C456.569 541.077 456.417 540.626 456.319 540.163C455.766 540.23 455.204 540.222 454.652 540.134L452.442 539.784C451.412 539.621 450.442 539.192 449.626 538.542L449.038 538.074C447.635 539.199 445.804 539.632 444.062 539.279C443.674 539.421 443.273 539.527 442.863 539.588L441.559 539.782C440.51 539.937 439.438 539.812 438.451 539.421L436.878 538.797L435.11 538.459L431.707 538.687C431.189 538.721 430.668 538.687 430.158 538.588L425.739 537.732C425.121 537.612 424.534 537.395 423.994 537.1C422.949 537.305 421.855 537.234 420.828 536.872L417.809 535.81C415.131 534.867 413.472 532.183 413.825 529.366L414.809 521.504L414.453 519.539C414.245 518.386 414.378 517.196 414.834 516.117L415.558 514.403L415.677 514.139C415.802 513.879 415.945 513.627 416.106 513.387L416.445 512.882L416.904 508.25L416.613 507.219C415.393 506.34 414.519 505.02 414.218 503.488L413.564 500.161L413.019 498.871L411.774 496.794C411.411 496.188 411.157 495.521 411.024 494.826L410.601 492.617C410.187 490.451 410.99 488.266 412.631 486.877C411.123 485.092 410.766 482.567 411.781 480.411L417.908 467.408C417.75 466.479 417.81 465.515 418.098 464.596L421.818 452.696L419.487 448.283C419.013 447.385 418.773 446.383 418.789 445.368L418.79 445.282C418.671 445.067 418.563 444.846 418.471 444.618C417.663 444.519 416.882 444.259 416.178 443.85L414.766 443.029C413.997 442.582 413.338 441.969 412.834 441.24L411.927 440.606L410.283 439.946C409.468 439.618 408.733 439.115 408.132 438.474L407.768 438.087C407.089 437.362 406.599 436.48 406.342 435.521L405.979 434.168C405.884 433.812 405.822 433.447 405.793 433.079L405.575 430.31L405.09 428.9C404.906 428.366 404.797 427.809 404.767 427.245L404.539 422.826C404.517 422.398 404.541 421.971 404.608 421.551L378.586 420.505C375.541 420.383 373.065 418.009 372.812 414.973L371.709 401.683L366.537 395.78C364.985 394.008 364.606 391.493 365.565 389.342C366.477 387.299 368.438 385.938 370.65 385.782L370.574 384.16L367.953 378.875C367.759 378.484 367.606 378.072 367.501 377.649L366.91 375.27C366.674 374.32 366.673 373.326 366.906 372.375L367.181 371.249C366.493 371.017 365.853 370.663 365.291 370.204C364.779 370.06 364.285 369.851 363.825 369.575L360.698 367.704C360.447 367.554 360.207 367.384 359.98 367.199L354.528 367.939C353.628 368.061 352.711 367.979 351.848 367.698L350.934 367.4L348.898 367.798C347.877 367.998 346.82 367.929 345.833 367.6L345.253 367.407C343.555 366.841 342.197 365.55 341.544 363.886L340.559 363.171C340.209 362.916 339.886 362.624 339.598 362.3L338.04 360.549C337.921 360.415 337.809 360.274 337.703 360.13L337.179 360.154C336.245 360.195 335.314 360.018 334.46 359.638L329.565 357.462C328.193 357.441 326.84 356.956 325.752 356.033L323.675 354.271L322.184 353.321C321.521 352.897 320.948 352.347 320.497 351.705L319.041 351.671C318.048 351.647 317.075 351.376 316.211 350.886L314.51 349.92C313.674 349.446 312.962 348.779 312.435 347.975L312.27 347.723L311.566 347.367C310.314 348.355 308.715 348.814 307.117 348.624L305.391 348.418C304.557 348.319 303.759 348.047 303.044 347.627L302.163 347.417L298.901 347.12C298.049 347.042 297.223 346.783 296.478 346.362L295.561 345.843C295.08 345.571 294.638 345.233 294.248 344.84L292.822 343.403C292.206 342.781 291.735 342.036 291.438 341.222L289.802 340.382C288.891 339.915 288.119 339.225 287.553 338.384L287.315 338.361C286.02 338.227 284.802 337.678 283.845 336.796L283.386 336.373C282.486 335.544 281.858 334.46 281.588 333.266L281.5 332.879L281.389 332.826C280.071 332.188 279.031 331.09 278.462 329.741L278.135 328.968C277.852 328.299 277.697 327.59 277.667 326.878C276.981 326.237 276.445 325.436 276.115 324.529L274.595 320.34C274.425 319.874 274.314 319.388 274.264 318.895L274.058 316.89C273.936 315.698 274.172 314.495 274.735 313.437L275.455 312.082L275.079 311.443C274.877 311.099 274.709 310.736 274.578 310.36L273.673 307.752C273.469 307.166 273.356 306.551 273.34 305.931L273.268 303.166C273.229 301.668 273.75 300.224 274.703 299.101C274.92 298.338 275.285 297.629 275.773 297.01C275.756 296.966 275.738 296.921 275.722 296.876C275.007 296.818 274.305 296.635 273.653 296.33L272.28 295.688L268.306 295.749L262.38 297.631C261.778 297.822 261.149 297.916 260.517 297.912L259.909 297.908C259.537 298.178 259.134 298.408 258.705 298.588L257.514 299.087L255.893 300.321L252.708 303.429C252.286 303.84 251.805 304.188 251.283 304.46L249.292 305.499C248.468 305.929 247.563 306.155 246.649 306.178L244.863 307.39C244.612 307.56 244.348 307.712 244.074 307.842L242.838 308.429L242.556 308.788L242.354 309.329C241.797 310.825 240.668 312.04 239.217 312.706L238.48 313.044C236.733 313.846 234.716 313.765 233.047 312.844L230.752 316.118C230.007 317.18 228.94 317.975 227.709 318.383L224.222 319.538L224.075 319.659C223.403 320.211 222.619 320.611 221.778 320.832L219.435 321.449C218.992 321.565 218.536 321.631 218.078 321.645L216.834 321.681C215.164 321.73 213.548 321.083 212.372 319.897C212.021 319.542 211.718 319.148 211.468 318.727L209.915 318.39L204.461 317.901L198.806 318.323C197.729 318.403 196.662 318.191 195.709 317.726L193.28 318.975C192.83 319.206 192.351 319.381 191.857 319.493L188.562 320.242C187.371 320.513 186.124 320.416 184.989 319.963L182.961 319.153C182.918 319.136 182.876 319.117 182.834 319.099C181.474 319.4 180.026 319.23 178.746 318.566C176.742 317.525 175.486 315.453 175.491 313.195L175.528 296.892C175.105 297.332 174.618 297.709 174.078 298.004L171.891 299.2C171.027 299.673 170.059 299.928 169.073 299.941L154.827 300.12C154.763 300.121 154.698 300.122 154.635 300.12L152.123 300.073C150.238 300.036 148.478 299.121 147.365 297.598C146.461 296.36 146.069 294.836 146.244 293.338C145.715 292.72 145.308 291.997 145.062 291.206L144.893 290.663C144.788 290.326 144.716 289.98 144.672 289.632L141.239 288.866L132.961 288.651C130.913 288.598 129.03 287.509 127.963 285.76C126.896 284.011 126.789 281.84 127.679 279.994L128.006 279.32L128.138 279.06C128.461 278.465 128.883 277.927 129.386 277.471L130.646 276.326C130.611 276.268 130.573 276.211 130.539 276.152L129.586 274.479C128.796 274.177 128.074 273.712 127.472 273.11L126.107 271.745C125.513 271.151 125.048 270.439 124.745 269.655L124.247 268.366L123.183 267.552C122.13 266.746 121.371 265.615 121.024 264.335L120.051 260.744L119.34 260.337C117.594 259.334 116.462 257.525 116.325 255.515L116.252 254.446C116.092 254.24 115.945 254.023 115.812 253.796L114.001 252.219C112.512 250.923 111.752 248.98 111.964 247.018L112.012 246.572L112.046 246.303C112.215 245.206 112.677 244.209 113.347 243.393C113.518 241.645 114.438 240.102 115.801 239.108C115.764 238.51 115.818 237.91 115.958 237.326L116.802 233.8C117.029 232.854 117.482 231.975 118.122 231.242L119.594 229.552L119.84 229.285C120.094 229.028 120.37 228.793 120.666 228.584L126.606 224.395C126.899 224.188 127.209 224.01 127.531 223.86L126.932 222.31C126.434 221.024 126.39 219.606 126.809 218.293L127.268 216.856C127.382 216.501 127.528 216.157 127.705 215.829L129.129 213.186L129.34 212.826C129.562 212.475 129.819 212.145 130.109 211.846L131.371 210.543L131.787 209.979L131.818 209.801L131.723 209.364C131.491 208.309 131.547 207.211 131.884 206.185L132.517 204.255L132.819 202.014L132.855 201.775C133.065 200.582 133.628 199.477 134.475 198.607L135.357 197.701L135.562 197.499C136.052 197.043 136.615 196.671 137.227 196.398L141.39 194.543L142.911 193.688C143.417 192.092 144.565 190.777 146.078 190.059L147.019 189.613L147.271 189.5C147.864 189.252 148.494 189.099 149.137 189.049L149.507 189.02L149.958 188.765L153.889 185.735L154.183 185.522C154.884 185.045 155.681 184.721 156.518 184.573L159.44 184.053C160.166 183.924 160.91 183.929 161.634 184.068L162.027 184.143L165.135 183.238L166.432 182.575L166.813 182.395C167.2 182.229 167.603 182.105 168.017 182.023L170.215 181.587L170.674 181.514C171.137 181.459 171.606 181.459 172.07 181.512L172.363 181.545C172.904 180.489 173.747 179.613 174.788 179.031L176.103 178.293C177.171 177.696 178.395 177.438 179.613 177.552L182.196 177.792C182.353 177.807 182.51 177.829 182.664 177.856C183.617 177.387 184.683 177.175 185.752 177.25L187.816 177.395L188.186 177.433C188.735 177.506 189.265 177.654 189.764 177.867L197.787 133.355C197.858 132.959 197.97 132.571 198.118 132.198L198.858 130.332L198.33 127.687C197.876 127.252 197.491 126.747 197.192 126.192L195.406 122.871C195.012 122.139 194.773 121.332 194.705 120.503L194.656 119.911C194.636 119.666 194.633 119.419 194.642 119.174C194.639 119.172 194.635 119.17 194.632 119.167L190.974 116.331C190.646 116.077 190.345 115.789 190.076 115.473L187.733 112.72C186.781 111.601 186.269 110.172 186.295 108.703L186.537 94.8079C186.586 91.9749 188.588 89.6029 191.281 89.0159C190.686 88.0709 190.357 86.9706 190.35 85.8352L190.279 73.882C190.27 72.2318 190.935 70.6482 192.123 69.5022C193.25 68.4146 194.755 67.8101 196.314 67.8098L196.64 67.6682L196.857 67.5773C197.077 67.4908 197.303 67.4169 197.532 67.3566L200.284 66.632C201.37 66.3464 202.514 66.3689 203.588 66.6975L206.163 67.4865L221.32 67.5334L221.986 66.1828L222.111 65.9426C223.454 63.4951 226.317 62.2772 229.028 63.0354L230.754 63.5178C231.606 63.7561 232.383 64.1762 233.039 64.7346C233.076 64.6957 233.114 64.6563 233.152 64.6185L234.673 63.1213L234.982 62.8371C235.301 62.5643 235.648 62.3245 236.017 62.1232L239.096 60.4456C240.605 59.6231 242.394 59.4838 244.013 60.0607L245.57 60.6155C247.111 61.1652 248.365 62.3177 249.041 63.8078L250.13 66.2121L251.592 68.0061C251.802 68.2647 251.991 68.5424 252.156 68.8322L253.051 70.4006C253.212 70.6844 253.35 70.9821 253.464 71.2883L254.261 73.4377L254.362 73.7356C254.456 74.0341 254.526 74.34 254.572 74.6496L254.85 76.5207C254.899 76.8532 254.916 77.1903 254.909 77.5256C255.405 77.7532 255.875 78.0471 256.301 78.4084L265.193 85.9641L265.385 85.9807L265.715 85.8371L266.957 84.5959L267.269 84.3059C267.591 84.0265 267.942 83.7802 268.316 83.5744L270.864 82.174C271.665 81.7336 272.557 81.4807 273.47 81.4348L276.113 81.3029L276.513 81.2961C277.444 81.311 278.362 81.5411 279.192 81.9709L279.668 82.218C280.098 81.3629 280.727 80.6134 281.515 80.0422L282.132 79.5959L282.377 79.427C282.958 79.048 283.6 78.7717 284.276 78.6106L285.183 78.3928L287.914 76.7434C288.962 76.1104 290.157 75.8221 291.338 75.8811L291.393 75.7951C291.919 74.9664 292.638 74.2775 293.489 73.7893L296.037 72.3283L296.301 72.1857C297.288 71.6829 298.39 71.4654 299.484 71.5461L299.465 70.6184C299.431 69.1543 299.93 67.7268 300.87 66.6037L301.8 65.4934L302.044 65.218C302.22 65.0316 302.409 64.8585 302.607 64.6966C301.451 63.9635 300.559 62.8482 300.112 61.5091L299.87 60.7854C299.388 59.3401 299.471 57.765 300.101 56.3781L300.446 55.6165L300.37 55.4328L298.19 51.4553C298.035 51.1717 297.902 50.8753 297.794 50.5705L296.913 48.0832C296.769 47.6757 296.668 47.2534 296.614 46.8244L296.047 42.3322C295.977 41.7805 295.988 41.2255 296.069 40.6819L295.404 40.3557C294.818 40.068 294.281 39.686 293.817 39.2268L290.426 35.8713C290.052 35.5015 289.728 35.0837 289.463 34.6301L288.182 32.4455C288.161 32.4099 288.143 32.3722 288.123 32.3361C287.515 31.895 286.991 31.3451 286.583 30.7092L286.281 30.2385C285.619 29.2048 285.286 27.9928 285.33 26.7658L285.367 25.7502C285.417 24.3592 285.946 23.0282 286.865 21.9826L287.216 21.5842L287.457 21.3234C288.701 20.0654 290.442 19.4119 292.218 19.55L293.304 19.634C294.22 19.7053 295.109 19.9858 295.9 20.4523L297.253 21.2492L297.599 21.468C297.909 21.6807 298.196 21.9243 298.461 22.1897L299.271 22.0705L299.601 22.0314C299.932 22.0012 300.266 21.9991 300.598 22.0236L302.226 22.1438L302.566 22.1779C302.904 22.2222 303.237 22.2962 303.562 22.3967L305.869 23.1086C307.26 23.5383 308.441 24.4552 309.206 25.6799C309.351 25.6767 309.497 25.6775 309.642 25.6848L313.481 25.8781L313.816 25.9035L314.385 25.9641L314.625 25.9943C314.731 26.0099 314.836 26.0289 314.94 26.05C315.893 25.6217 316.964 25.4372 318.057 25.5539L319.638 25.7229L319.985 25.7707C320.792 25.9047 321.565 26.201 322.256 26.6438L324.006 27.7668C324.14 27.8531 324.271 27.9457 324.398 28.0422C324.896 26.9554 325.71 26.0297 326.748 25.3977L327.304 25.0598L327.646 24.8664C328.414 24.4653 329.261 24.2358 330.128 24.1906C330.254 24.0857 330.384 23.9843 330.518 23.8898L332.39 22.5744L332.604 22.4309C333.69 21.735 334.972 21.4025 336.264 21.4885L337.169 21.55L337.566 21.5891C337.961 21.6418 338.351 21.7338 338.728 21.8635L340.777 22.5676C341.001 22.4719 341.231 22.3879 341.466 22.3195L342.71 21.9572L343.138 21.8488C343.675 21.7343 344.224 21.698 344.769 21.7316C345.464 21.1559 346.281 20.7404 347.159 20.5207L348.366 20.2189L348.463 20.1965C348.948 19.4899 349.585 18.883 350.344 18.4299L354.002 16.2453L354.206 16.1291C355.238 15.5661 356.414 15.3155 357.589 15.4113L359.397 15.5578L359.798 14.799L359.97 14.4953C360.712 13.2645 361.867 12.3441 363.219 11.8908C362.461 10.8601 362.032 9.58835 362.049 8.24245C362.082 5.56615 363.873 3.23095 366.449 2.50615L367.222 2.28835L367.459 2.22685C368.012 2.09515 368.582 2.04175 369.151 2.06955L370.878 2.15455C371.471 2.18365 372.057 2.30125 372.616 2.50125L373.517 2.47685C374.088 2.04815 374.731 1.72115 375.418 1.51685L376.311 1.25025L376.742 1.13985Z" fill="#910A35"/>
<path d="M555.659 682.819C563.778 681.322 570.716 681.322 579.071 682.74C601.143 686.602 621.639 698.186 650.175 722.853L657.506 729.236L651.356 731.127C647.967 732.23 645.839 733.177 646.548 733.413C648.361 733.807 649.228 737.116 648.125 739.48C646.864 742.239 642.212 744.288 633.305 746.101C588.452 755.242 556.684 749.016 534.691 726.793C531.617 723.641 528.307 719.621 527.439 717.888C525.705 714.657 525.153 708.353 526.572 708.353C526.965 708.351 525.862 705.987 524.128 703.072L520.896 697.871L522.788 696.452C526.02 693.93 537.844 688.098 543.835 685.971C547.067 684.789 552.348 683.371 555.659 682.819ZM398.477 682.818C414.4 680.06 428.51 682.503 444.827 690.699C452.552 694.561 456.415 697.004 456.415 698.187C456.414 698.66 455.232 700.788 453.813 703.072C449.793 709.377 449.793 709.456 450.739 708.825C451.685 708.274 452.08 710.165 451.686 713.475C451.37 716.706 448.138 721.513 442.699 726.95C420.47 749.016 388.938 755.163 344.164 746.101C335.256 744.288 330.605 742.239 329.344 739.48C328.24 737.116 329.108 733.807 330.921 733.334C331.629 733.176 329.58 732.23 326.349 731.206L320.516 729.394L324.771 725.453C352.204 700.708 376.72 686.443 398.477 682.818ZM501.609 727.821C506.729 725.221 506.544 733.142 501.068 739.466C496.688 744.525 485.284 744.993 479.859 744.093V734.761C479.861 725.276 491.738 732.834 501.609 727.821ZM492.972 716.251L498.722 726.211H483.408C481.172 726.285 476.698 729.317 476.697 740.854C471.49 736.813 463.228 720.698 471.839 688.563L472.225 629.256H492.972V716.251ZM501.609 725.276L495.748 716.251L495.594 629.256H501.609V725.276ZM505.696 688.563C506.956 696.25 508.473 714.201 504.463 724.504L503.691 629.256H505.696V688.563ZM302.069 649.326C321.303 646.804 340.222 652.242 358.273 665.402C360.637 667.135 362.607 668.79 362.609 669.027C362.609 669.264 361.191 671.313 359.535 673.599C356.776 677.224 356.54 678.012 357.249 679.667C358.825 683.056 356.776 687.548 350.864 693.379C328.162 715.996 295.842 720.882 250.752 708.667C236.484 704.806 231.833 701.654 232.937 696.531C233.252 695.113 233.962 694.167 234.75 694.167C236.878 694.167 234.829 692.906 229.626 691.015C226.868 689.99 224.661 689.045 224.66 688.729C224.739 688.099 240.978 676.357 249.491 670.919C267.779 659.098 286.856 651.296 302.069 649.326ZM655.298 649.562C662.077 648.302 673.428 648.695 682.336 650.508C700.466 654.291 719.859 664.063 743.822 681.637L753.755 688.887L747.527 691.251C744.138 692.591 742.009 693.852 742.719 694.01C743.428 694.168 744.295 695.35 744.531 696.61C745.635 701.654 740.905 704.806 726.717 708.667C681.627 720.882 649.307 715.996 626.604 693.379C620.614 687.468 618.643 683.134 620.299 679.509C621.166 677.618 620.929 677.065 618.013 673.204L614.859 668.949L620.141 665.009C630.309 657.522 643.08 651.927 655.298 649.562ZM465.139 578.354V586.374L428.042 583.058V617.146L465.139 613.83V621.852L433.509 626.031C439.002 635.463 442.354 646.34 443.881 658.94C444.59 664.535 444.512 666.111 443.724 666.663C443.172 666.978 442.62 667.924 442.541 668.791C441.437 675.49 438.126 677.617 428.352 677.617C404.467 677.617 379.715 662.486 362.767 637.505C351.967 621.665 342.902 603.145 342.902 596.998C342.902 594.634 343.218 593.374 343.69 593.688C344.479 594.161 343.139 590.221 339.04 580.055C338.173 577.848 337.542 575.957 337.778 575.957C338.015 575.957 344.479 577.376 352.125 579.188C383.718 586.474 406.001 596.26 420.793 610.134V572.493L465.139 578.354ZM556.676 610.544C571.601 596.266 594.285 586.216 627.393 578.716C633.697 577.298 639.136 576.037 639.532 576.036C640.478 575.957 640.242 576.982 638.035 582.341C633.621 593.215 632.99 594.949 633.856 594.397C634.566 594.003 634.646 595.028 634.409 598.181C633.936 603.697 625.107 621.822 616.436 634.825C598.384 662.171 574.026 677.617 549.116 677.617C539.657 677.617 536.032 675.569 535.007 669.658C534.849 668.634 534.455 667.137 534.061 666.349C532.326 662.251 536.346 642.548 540.997 632.54C542.021 630.316 543.142 628.166 544.361 626.085L512.329 621.852V613.83L549.427 617.146V583.058L512.329 586.374V578.354L556.676 572.493V610.544ZM0 363.731C0 363.495 0.787928 363.495 1.8125 363.652C2.75842 363.889 9.22248 364.913 16.1592 365.938C37.6004 369.326 56.2832 374.685 68.6592 380.911C91.9134 392.732 106.733 412.276 111.542 437.494C113.04 445.611 113.039 446.793 111.227 447.266C110.281 447.502 109.887 448.133 110.123 449.078C110.754 451.521 108.073 455.935 104.999 457.511C102.713 458.614 100.19 458.93 93.8057 458.93C89.2337 458.93 84.2674 458.693 82.7695 458.299C81.2718 457.984 82.6909 458.772 85.9229 459.954C112.33 470.041 127.859 486.197 136.372 512.124C139.131 520.635 139.131 520.556 137.318 521.107C136.451 521.423 135.821 522.447 135.742 524.023C135.348 528.752 132.747 532.22 128.727 533.323C125.889 534.19 126.992 534.505 135.899 535.688C164.041 539.391 184.615 553.891 197.464 578.873C198.961 581.788 200.223 584.467 200.224 584.783C200.224 585.098 199.119 585.965 197.779 586.596C195.888 587.62 195.414 588.251 195.809 589.67C196.597 592.743 194.784 597.077 191.789 599.362C190.213 600.623 186.192 602.278 182.172 603.303C175.235 605.115 176.496 605.115 186.822 603.066C195.178 601.411 217.172 600.703 224.188 601.885C243.106 605.116 259.344 614.966 272.114 630.964C274.636 634.116 276.686 636.953 276.687 637.269C276.687 637.584 275.267 638.845 273.533 640.105C270.932 642.075 270.617 642.627 271.247 643.967C272.666 646.489 271.326 650.587 268.252 653.739C264.468 657.443 252.802 662.959 243.895 665.166C234.672 667.451 218.748 667.609 208.895 665.481C184.931 660.359 146.621 639.712 146.62 631.91C146.62 629.546 148.118 627.024 149.143 627.654C151.902 629.388 148.197 625.921 143.861 622.769C141.024 620.72 138.737 618.749 138.737 618.513C138.738 617.961 144.571 615.754 163.174 609.292C169.874 607.007 174.13 605.352 172.634 605.667C171.136 606.061 165.776 606.219 160.81 606.219C136.531 605.982 114.301 595.186 86.79 570.52C79.8532 564.294 75.6748 558.777 75.6748 555.782C75.6749 552.867 76.4631 551.606 77.8818 552.079C79.0642 552.473 70.3155 542.623 68.1865 541.125C67.7924 540.81 67.6344 540.415 67.792 540.258C68.0285 540.1 74.4139 538.997 81.9814 537.814C89.5488 536.632 97.3525 535.372 99.3232 534.978L102.87 534.348L99.2441 534.269C95.4603 534.19 87.8929 531.825 80.168 528.437C73.7041 525.521 63.6927 518.822 56.2041 512.281C44.9317 502.352 26.3282 479.34 24.3574 472.721C23.3327 469.332 23.9639 465.234 25.3828 466.101C26.4075 466.731 26.4067 466.731 20.7314 457.905L16.5537 451.442H23.8848C33.6593 451.442 52.2623 452.861 61.4854 454.201C65.5844 454.832 70.2356 455.541 71.7334 455.777C73.2311 456.014 72.206 455.541 69.3682 454.753C61.3278 452.467 48.9522 444.35 39.1777 434.973C27.59 423.94 9.14387 396.593 6.7002 387.058C5.75443 383.275 5.99085 379.414 7.17285 380.201C8.11879 380.753 6.93637 377.837 3.23145 370.351C1.42007 366.886 0.00249857 363.894 0 363.731ZM973.527 364.046C975.498 363.731 977.154 363.731 977.312 364.046C977.469 364.361 976.128 367.513 974.315 371.06C970.532 378.625 969.349 381.54 970.295 380.989C970.689 380.753 971.163 381.147 971.32 381.936C973.212 389.108 951.613 423.073 936.399 436.785C926.861 445.454 914.958 452.861 907.627 454.91C902.661 456.25 902.661 456.25 916.771 454.201C926.704 452.704 948.066 451.285 955.239 451.601L960.915 451.837L956.974 457.905C951.614 466.337 951.14 467.283 952.401 467.047C954.057 466.653 954.057 470.75 952.401 474.454C950.509 478.71 940.972 491.477 932.773 500.697C922.289 512.518 908.179 523.551 897.222 528.437C889.575 531.825 882.007 534.19 878.224 534.269C875.229 534.347 875.781 534.505 881.299 535.45C901.161 538.602 909.28 540.021 909.598 540.179C909.755 540.336 907.548 542.938 904.71 546.09C900.217 550.976 899.666 551.922 900.69 552.867C904.552 556.729 898.798 564.136 879.801 579.818C864.114 592.743 846.062 601.806 829.666 605.194C824.227 606.298 809.881 606.613 805.229 605.667C802.549 605.194 808.303 607.243 835.814 616.7C837.863 617.409 839.518 618.197 839.52 618.434C839.52 618.67 836.839 620.799 833.607 623.084C830.376 625.448 827.695 627.497 827.695 627.733C827.696 627.891 828.01 627.89 828.404 627.575C829.429 627.024 830.848 629.703 830.849 631.988C830.849 639.633 792.223 660.438 768.574 665.481C758.721 667.609 742.797 667.451 733.574 665.166C724.667 662.959 713.001 657.443 709.217 653.739C706.143 650.587 704.881 646.489 706.221 643.889C706.93 642.628 706.537 641.997 703.856 639.869L700.703 637.348L703.936 633.25C716.075 617.804 729.87 608.189 746.896 603.303C754.701 601.096 773.698 600.545 785.838 602.278C790.804 602.988 794.982 603.382 795.14 603.225C795.376 603.067 794.036 602.673 792.302 602.357C788.045 601.648 783.157 598.023 782.054 594.713C781.029 591.64 781.187 588.566 782.369 588.566C782.763 588.566 781.896 587.778 780.319 586.832C777.403 585.177 777.403 585.178 778.507 582.577C779.137 581.08 781.266 577.139 783.236 573.829C795.928 552.315 814.137 540.1 839.52 536.081C844.092 535.372 848.664 534.584 849.768 534.348C851.659 533.954 851.659 533.953 849.216 533.401C845.038 532.456 842.988 530.171 841.806 524.97C841.49 523.236 841.569 522.369 842.199 522.29C842.672 522.29 842.279 521.975 841.333 521.581C839.047 520.635 839.047 519.925 841.569 511.966C845.905 498.096 852.921 486.827 863.011 477.37C870.184 470.672 879.17 465.076 889.891 460.742C894.068 459.009 896.433 457.905 895.094 458.299C893.833 458.614 888.866 458.93 884.058 458.93C874.204 458.93 870.263 457.59 868.292 453.729C866.873 451.049 866.794 448.527 868.134 448.054C868.607 447.817 868.292 447.581 867.346 447.581C866.4 447.502 865.454 447.266 865.296 446.872C864.587 445.847 867.031 433.002 869.08 426.776C878.461 397.933 900.296 380.28 938.449 370.666C947.199 368.381 955.239 366.883 973.527 364.046ZM271.562 507.553C272.036 506.135 279.682 512.834 291.27 524.812C309.479 543.646 319.884 559.25 325.087 575.642C328.24 585.571 329.029 591.719 328.319 602.357C328.004 607.559 327.688 613.784 327.609 616.148C327.294 622.295 324.299 633.014 321.461 638.451C317.047 646.647 311.608 647.434 302.148 641.13C287.644 631.515 276.765 615.912 271.562 597.629C268.173 585.493 267.463 578.243 267.621 553.892C267.7 534.821 267.937 529.698 269.435 520.005C270.459 513.7 271.405 508.104 271.562 507.553ZM705.591 506.607C706.931 506.613 710.162 532.142 710.714 547.192C711.029 555.467 710.793 562.009 710.005 569.022C709.295 574.538 708.98 579.739 709.217 580.606C709.453 581.631 709.295 582.262 708.665 582.262C708.113 582.262 707.955 582.892 708.271 583.759C708.901 585.965 706.537 596.604 703.62 604.406C699.758 614.809 694.87 622.768 687.46 630.491C675.557 643.021 666.176 647.671 660.106 643.889C655.14 640.736 650.489 626.63 649.938 613.391C649.78 609.056 649.386 603.855 649.149 601.885C648.361 596.447 650.174 583.759 652.696 575.878C658.924 556.964 670.434 540.572 693.215 518.191C699.757 511.808 705.354 506.607 705.591 506.607ZM509.763 626.818H467.706V573.42H509.763V626.818ZM471.026 623.498H506.442V576.74H471.026V623.498ZM504.507 621.64H472.963V578.598H504.507V621.64ZM465.139 588.612V611.594L429.738 614.833V585.372L465.139 588.612ZM547.729 614.833L512.329 611.594V588.612L547.729 585.372V614.833ZM800.421 604.406C799.554 604.406 799.317 604.643 799.947 604.879C800.499 605.115 801.209 605.037 801.445 604.801C801.761 604.564 801.288 604.327 800.421 604.406ZM797.268 603.618C796.4 603.618 796.164 603.854 796.795 604.091C797.346 604.327 798.055 604.249 798.292 604.013C798.607 603.776 798.135 603.539 797.268 603.618ZM226.395 453.098C227.262 454.595 230.809 461.057 234.119 467.598C249.018 496.677 255.088 520.005 253.038 540.258C252.565 544.749 252.329 548.689 252.565 549.005C253.038 549.793 250.989 560.354 249.412 565.318C245.944 575.957 236.09 591.482 230.572 594.871C225.133 598.26 220.009 596.368 214.019 588.803C205.82 578.322 198.252 558.147 199.75 550.424C199.986 549.084 199.987 548.375 199.593 548.927C199.278 549.398 198.962 544.275 198.805 537.499C198.332 513.148 203.455 493.683 218.354 463.343L224.739 450.34L226.395 453.098ZM757.774 459.796C774.328 492.658 780.793 517.246 778.743 539.942C778.349 544.356 777.876 550.266 777.719 553.104C776.93 564.136 770.86 579.267 763.45 588.803C753.833 600.939 746.187 598.89 735.467 581.158C727.82 568.549 725.298 559.092 724.746 540.415C724.273 525.284 724.903 518.743 727.978 506.844C731.604 492.974 739.96 473.509 749.734 456.25L753.045 450.34L757.774 459.796ZM487.602 571.959H471.756V153.166C446.626 153.326 402.896 154.588 382.437 158.821C354.076 164.689 366.005 155.657 356.275 157.039C343.719 158.821 313.646 166.965 333.014 140.59C335.801 136.794 340.119 152.171 353.303 152.171C367.57 152.171 362.095 136.133 367.57 136.132C370.309 136.133 374.613 142.782 377.352 147.476H471.756V32.6934L487.602 0V571.959ZM505.714 32.6934V147.476H602.729C605.467 142.782 609.77 136.133 612.508 136.132C617.984 136.133 612.508 152.171 626.776 152.171C639.959 152.171 644.277 136.795 647.065 140.59C666.432 166.965 636.359 158.821 623.804 157.039C614.074 155.657 626.004 164.688 597.643 158.821C576.456 154.437 530.313 153.237 505.714 153.151V571.959H489.868V0L505.714 32.6934ZM795.454 391.392C795.691 391.707 798.45 395.175 801.524 399.194C818.63 421.26 829.666 441.986 834.869 461.845C836.288 467.125 836.603 470.75 836.682 480.207C836.839 502.746 835.736 511.572 831.558 520.398C827.38 529.461 822.099 534.977 817.605 534.978C809.486 534.978 791.986 515.906 786.074 500.539C783.158 493.053 780.871 482.099 781.502 478.946C781.738 477.607 781.66 476.74 781.345 476.976C780.083 477.764 780.871 444.271 782.29 436.863C784.34 425.988 787.966 411.882 791.592 400.849C793.404 395.335 795.138 391.081 795.454 391.392ZM182.724 391.55C183.434 391.552 190.055 412.671 192.656 423.467C195.967 436.942 197.228 447.108 197.149 459.323C197.149 465.628 196.754 472.642 196.36 474.849C195.887 477.134 195.73 479.498 195.967 480.207C196.676 482.02 194.075 493.683 191.395 500.539C184.852 517.482 166.169 536.711 158.129 534.662C154.976 533.874 151.507 530.407 148.039 524.575C143.861 517.562 141.89 510.39 141.496 501.485C141.338 497.545 140.944 490.846 140.708 486.512C139.053 462.082 149.931 434.578 173.974 402.425C178.388 396.436 182.329 391.55 182.724 391.55ZM898.956 457.038C898.089 457.038 897.853 457.274 898.483 457.511C899.035 457.747 899.744 457.668 899.98 457.432C900.296 457.195 899.823 456.959 898.956 457.038ZM824.621 305.493C845.589 327.165 858.99 348.443 864.508 368.538C866.321 375.237 866.637 377.68 866.637 388.004C866.716 409.833 865.375 419.605 861.118 428.353C857.65 435.445 852.132 437.336 845.037 433.79C833.371 427.879 820.995 414.482 815.004 401.164C811.772 394.071 808.619 381.935 808.461 376.419C808.461 373.976 808.225 372.085 807.988 372.242C807.752 372.399 807.515 364.992 807.357 355.851C807.042 335.44 808.619 320.939 813.664 298.952L814.531 295.091L824.621 305.493ZM163.096 295.405C163.728 295.415 168.219 318.341 169.401 327.717C170.899 339.144 171.214 352.462 170.269 361.997C169.796 367.198 169.244 373.582 169.086 376.183C168.771 382.408 166.169 392.259 162.938 399.982C158.523 410.464 151.665 419.368 142.127 427.249C132.037 435.445 125.809 437.336 120.37 433.711C116.114 430.952 112.094 419.289 111.542 408.493C111.384 405.026 110.989 398.248 110.753 393.52C109.019 365.622 123.05 336.858 154.424 303.838C158.917 299.188 162.78 295.405 163.096 295.405ZM449.613 355.029C447.227 372.061 424.188 406.124 351.126 406.124C278.065 406.124 254.039 372.061 251.157 355.029L251.238 354.868H449.534L449.613 355.029ZM726.312 355.029C723.924 372.061 700.885 406.124 627.823 406.124C554.762 406.124 530.735 372.061 527.854 355.029L527.937 354.868H726.231L726.312 355.029ZM13.7158 252.062C14.3464 252.062 31.6886 262.623 38.4678 267.193C64.6387 284.688 79.6167 302.026 86.79 322.988C89.3124 330.238 89.3906 330.869 89.3906 343.872C89.4694 351.201 89.2333 360.185 88.918 363.731C87.7355 379.414 80.9561 383.118 66.373 376.183C45.4048 366.253 30.9007 348.6 22.5449 322.909C19.1553 312.664 15.687 295.248 15.5293 288.155C15.4505 285.318 15.214 283.27 14.9775 283.585C14.7411 283.979 14.583 281.851 14.583 279.014C14.583 276.098 14.2682 268.848 13.874 262.858C13.5588 256.949 13.4007 252.064 13.7158 252.062ZM964.226 252.062C964.541 252.062 964.698 254.111 964.462 256.554C964.225 259.076 963.674 266.09 963.122 272.158C962.57 278.226 962.176 284.846 962.098 286.895C962.098 289.022 961.861 290.125 961.467 289.652C961.073 289.101 960.994 289.968 961.23 291.544C962.098 296.745 956.737 319.284 951.613 331.814C943.257 352.225 930.251 366.647 912.436 375.474C901.242 380.99 894.699 380.832 891.31 375C889.654 372.163 887.369 361.367 888.63 362.155C889.181 362.47 889.26 362.154 888.866 361.209C887.526 357.584 887.447 339.931 888.708 332.444C893.517 304.862 913.619 282.166 955.082 257.185C959.811 254.348 963.91 252.063 964.226 252.062ZM448.579 352.943L351.951 173.265L252.202 352.984L351.867 158.054L448.579 352.943ZM725.276 352.943L628.648 173.265L528.899 352.984L628.564 158.054L725.276 352.943ZM221.743 105.481C222.453 105.481 222.452 105.56 221.112 109.422C218.905 115.648 216.068 126.759 216.856 126.365C219.22 124.87 216.067 136.69 210.471 150.401C203.061 168.527 195.888 180.427 186.271 190.593C180.516 196.661 170.741 204.542 169.401 204.227C168.455 203.912 168.062 207.694 167.51 221.722C167.273 228.657 166.563 238.193 165.933 242.921C165.302 247.649 164.987 252.456 165.303 253.48C165.618 254.899 165.539 255.293 164.829 254.899C164.199 254.427 164.041 254.82 164.356 256.16C164.987 258.525 161.44 274.679 158.681 282.402C155.685 290.835 148.749 303.917 144.492 309.197C139.763 315.029 133.062 320.466 125.337 324.801C104.605 336.543 96.0125 334.809 94.2783 318.653C93.963 315.265 94.042 314.241 94.5938 315.107C95.2243 315.974 95.2242 315.658 94.8301 313.925C94.5148 312.584 94.1992 306.044 94.1992 299.346C94.1992 289.968 94.5937 285.87 95.6973 281.614C101.688 259.233 116.508 240.083 144.098 219.199C148.906 215.495 152.927 212.343 152.927 212.186C152.926 212.029 152.138 212.265 151.192 212.659C148.512 213.841 135.663 214.786 131.643 214.077C128.017 213.447 123.839 210.058 123.682 207.536C123.524 206.039 123.365 205.566 122.577 203.675C121.631 201.468 123.445 185.076 125.337 177.983C131.486 155.76 148.04 137.556 175.156 123.213C184.852 118.169 191.631 115.411 208.5 109.737C215.436 107.374 221.347 105.482 221.743 105.481ZM755.962 105.876C755.962 105.561 756.435 105.481 757.065 105.718C757.617 105.954 760.77 106.9 763.923 107.846C791.355 115.963 816.107 128.887 830.375 142.521C844.091 155.602 851.107 168.37 854.103 185.786C855.364 192.8 855.679 203.36 854.733 204.306C854.103 204.936 854.024 205.33 853.787 207.536C853.629 210.058 849.452 213.447 845.826 214.077C841.097 214.865 827.696 213.604 825.567 212.186C820.995 209.27 824.7 212.344 834.632 219.83C852.683 233.464 868.844 251.037 875.623 264.435C881.535 276.019 883.9 286.422 883.663 300.134C883.584 305.965 883.506 312.507 883.506 314.556C883.427 316.762 883.19 317.944 882.796 317.393C882.481 316.841 882.402 317.787 882.639 319.6C883.19 324.013 880.668 329.529 877.278 331.263C872.312 333.863 864.744 331.893 852.132 324.801C844.407 320.466 837.706 315.029 832.977 309.197C828.326 303.366 821.389 289.968 818.314 280.748C815.004 270.819 811.693 254.033 812.166 249.698C812.481 247.492 812.403 246.703 811.93 247.728C811.536 248.831 811.299 247.964 811.378 244.97C811.457 238.744 809.644 204.545 809.171 204.147C808.934 203.911 808.776 204.148 808.776 204.699C808.776 206.275 796.795 196.661 790.804 190.199C787.651 186.811 783.315 181.372 781.107 178.062C772.752 165.453 761.006 138.265 760.061 129.202C759.745 125.893 759.903 125.104 760.691 125.577C761.401 125.971 761.558 125.735 761.243 124.711C758.642 115.807 755.963 106.351 755.962 105.876ZM54.9434 136.61C55.4951 134.877 54.7853 134.168 65.9785 148.432C82.7689 169.867 92.3865 187.441 97.1162 205.015C98.5351 210.295 98.8506 213.762 98.8506 223.691C98.9294 244.024 97.9048 251.353 93.2539 263.017C90.4162 270.109 86.4745 276.176 83.6367 277.674C79.4589 279.802 75.6747 279.251 70.8662 275.783C64.2446 270.976 55.9675 260.731 51.3955 251.668C47.1388 243.078 43.5915 229.129 43.5127 220.539C43.5126 219.435 43.2762 213.209 42.9609 206.748C42.3303 193.509 43.4342 182.318 46.9814 165.769C48.7156 157.809 50.1349 152.687 54.9434 136.61ZM922.289 135.507C923.078 135.43 930.25 161.986 932.3 172.546C934.034 181.609 934.35 185.392 934.429 199.262C934.508 222.667 933.719 230.627 929.777 242.369C926.861 250.959 923.077 257.815 917.165 265.302C910.307 273.734 903.607 278.856 899.192 278.856C894.62 278.856 891.467 276.65 888.156 271.212C883.19 262.937 878.067 245.364 879.249 240.557C879.564 239.453 879.485 238.665 879.17 238.901C878.855 239.137 878.382 234.96 878.303 229.681C877.672 208.561 884.057 189.095 898.798 166.557C903.606 159.228 906.208 155.761 917.56 141.103C919.924 138.029 922.053 135.507 922.289 135.507ZM116.508 36.29C122.026 46.5349 129.121 62.6109 132.353 72.3828C137.792 88.4593 139.841 102.96 138.658 116.515C138.343 120.613 138.264 124.868 138.422 125.972C138.816 127.547 138.659 127.705 138.028 126.76C137.319 125.814 137.24 126.129 137.634 127.941C138.264 131.724 134.402 145.28 130.146 153.948C123.997 166.478 116.271 174.044 109.649 174.044C106.891 174.044 105.787 173.492 102.87 170.812C96.1698 164.587 89.6276 152.214 86.7109 139.92C84.425 130.699 83.7151 106.428 85.4492 96.0254C88.3659 78.2151 95.5399 59.065 108.152 35.502L112.172 28.0938L116.508 36.29ZM870.735 37.3926C888.156 69.9397 895.882 98.7833 893.123 120.455C892.65 124.71 892.414 128.65 892.808 129.202C893.123 129.833 893.044 129.991 892.492 129.597C891.862 129.203 891.704 129.755 892.02 131.252C892.65 134.641 888.866 148.038 885.24 155.209C878.698 168.133 873.258 174.044 867.819 174.044C865.849 174.044 863.484 173.334 861.907 172.389C854.103 167.581 845.116 152.608 841.411 138.187C838.416 126.523 837.865 105.797 840.229 92.5576C843.146 76.4811 850.792 55.9914 861.355 36.2109L865.77 28.0938L870.735 37.3926ZM238.297 4.60938C239.085 4.60938 239.085 4.68842 237.193 14.0664C236.326 18.6372 235.459 25.1784 235.302 28.7246C235.065 35.3446 231.281 51.1838 227.419 62.1377C224.502 70.176 218.354 82.7069 214.255 88.9326C209.919 95.5524 200.302 105.561 194.312 109.816C181.305 119.037 162.308 124.474 154.897 121.086C153.794 120.613 152.139 118.958 151.271 117.539C149.695 115.017 149.616 114.072 150.01 100.123C150.325 88.1446 150.72 84.283 152.06 79.5547C160.731 49.9235 183.275 29.2758 230.178 7.99805C234.275 6.18621 237.9 4.61061 238.297 4.60938ZM739.408 4.60938C739.726 4.61072 743.588 6.18599 748 8.15527C805.939 33.8462 830.612 63.9511 828.168 106.191C827.38 120.061 825.015 122.662 813.664 121.795C799.554 120.77 784.576 112.968 772.516 100.28C762.583 89.8778 755.015 76.5598 749.34 59.6953C744.374 44.723 740.354 26.5196 742.324 27.6992C742.955 28.0932 740.591 11.7811 739.093 5.94922C738.935 5.23996 739.014 4.60938 739.408 4.60938Z" fill="#9E830E"/>
</svg>
