<svg width="1401" height="927" viewBox="0 0 1401 927" fill="none" xmlns="http://www.w3.org/2000/svg">
<path d="M691.987 1.38548C696.041 0.238858 700.36 -0.641257 704.507 0.612047C802.467 26.252 897.707 61.3851 990.827 100.985C999.76 104.972 1009 108.278 1017.63 112.931C1010.49 163.585 1002.81 214.172 996.373 264.905C1004.77 260.972 1012.55 255.879 1020.68 251.426C1062.85 227.492 1105.99 205.225 1149.95 184.732C1153.79 183.132 1158.2 179.878 1162.33 182.625C1235.84 219.371 1307.32 260.026 1378.08 301.772C1385.64 306.345 1393.36 310.638 1400.73 315.518C1377.84 332.158 1354.6 348.345 1331.93 365.318C1258.64 419.825 1187.76 477.585 1119.24 537.985C1115.2 542.185 1109.29 538.638 1104.52 537.971C983.627 510.158 861.773 486.612 739.267 467.132C727 465.492 714.84 462.905 702.493 461.971C706.96 466.305 712.134 469.785 717.2 473.358C800.947 534.425 883.4 597.279 963.8 662.692C966.253 664.719 968.654 666.811 971.08 668.891C961.64 678.878 951.027 687.666 941.36 697.426C862.84 772.212 784.227 846.932 705.747 921.785C703.987 923.332 702.2 924.852 700.413 926.385C693.853 921.332 688.333 915.132 682.387 909.426C546.187 778.239 408.707 648.252 265.907 524.212C268.294 518.438 271.094 512.852 274.014 507.332C311.44 433.945 349.347 360.745 390.787 289.518C394.96 282.092 399.96 275.119 403.493 267.345C396.547 270.385 390.134 274.465 383.561 278.225C307.134 322.265 232.16 368.785 158.413 417.172C154.427 419.665 150.76 422.972 146.146 424.265C141.747 421.719 138.107 418.078 134.12 414.971C94.6535 383.371 53.773 353.572 12.1064 324.959C8.01317 322.172 3.95994 319.332 0 316.345C8.4 310.159 17.8137 305.558 26.667 300.051C144.707 230.478 265.574 165.425 390.627 109.305C395.867 106.879 401.214 104.012 407.16 104.051C494.8 104.145 582.44 107.531 669.84 113.971C678.627 114.465 687.387 115.798 696.2 115.372C693.694 113.838 691.134 112.398 688.44 111.238C636.654 90.0781 584.094 70.8252 531.027 53.1452C539.081 49.3987 547.693 47.1179 556.04 44.1579C601.04 28.9046 646.107 13.7855 691.987 1.38548ZM704.507 117.905C702.04 116.718 699.267 116.812 696.854 118.051C621.8 151.212 548.24 187.731 476 226.625C452.56 239.518 428.88 252.038 405.88 265.705C411.6 269.478 417.547 272.878 423.44 276.372C473.427 306.292 522.361 337.931 570.641 370.505C614.507 399.918 657.481 430.639 700.601 461.119C707.681 456.599 714.294 451.425 721.16 446.598C804.893 386.718 890.027 328.638 978.48 275.891C984.147 272.558 990.013 269.505 995.227 265.438C902.213 209.038 804.827 159.905 704.507 117.905ZM670.507 170.745C703.64 167.692 737.387 169.758 769.627 178.212C790.307 183.598 810.387 191.785 828.24 203.612C840.854 212.052 852.36 222.559 860.146 235.692C868.2 249.172 871.8 265.785 867.787 281.185C863.4 299.385 850.814 314.398 836.374 325.745C814.267 342.825 787.667 353.185 760.573 359.225C716.027 369.025 669.027 368.052 624.987 356.105C598.241 348.692 572.16 336.571 551.854 317.278C538.294 303.771 527.867 285.505 528.733 265.839C529.227 244.959 541.72 226.398 557.16 213.212C588.8 186.745 630.134 175.012 670.507 170.745Z" fill="#003772"/>
</svg>
